ISO-10303-21;
HEADER;
/* Generated by software containing ST-Developer
 * from STEP Tools, Inc. (www.steptools.com) 
 */

FILE_DESCRIPTION(
/* description */ (''),
/* implementation_level */ '2;1');

FILE_NAME(
/* name */ 'C:/Users/Gebruiker/Documents/Tinywhoop 615 motor.step',
/* time_stamp */ '2020-01-05T22:12:42+01:00',
/* author */ (''),
/* organization */ (''),
/* preprocessor_version */ 'ST-DEVELOPER v18',
/* originating_system */ 'Autodesk Translation Framework v8.12.0.6',
/* authorisation */ '');

FILE_SCHEMA (('AUTOMOTIVE_DESIGN { 1 0 10303 214 3 1 1 }'));
ENDSEC;

DATA;
#10=MECHANICAL_DESIGN_GEOMETRIC_PRESENTATION_REPRESENTATION('',(#14,#15),
#255);
#11=SHAPE_REPRESENTATION_RELATIONSHIP('SRR','None',#262,#12);
#12=ADVANCED_BREP_SHAPE_REPRESENTATION('',(#16,#17),#254);
#13=TOROIDAL_SURFACE('',#141,2.5,0.5);
#14=STYLED_ITEM('',(#272),#16);
#15=STYLED_ITEM('',(#273),#17);
#16=MANIFOLD_SOLID_BREP('Body1',#117);
#17=MANIFOLD_SOLID_BREP('Body2',#118);
#18=PLANE('',#139);
#19=PLANE('',#140);
#20=PLANE('',#149);
#21=PLANE('',#150);
#22=LINE('',#232,#24);
#23=LINE('',#248,#25);
#24=VECTOR('',#165,0.4);
#25=VECTOR('',#186,3.);
#26=CYLINDRICAL_SURFACE('',#137,0.4);
#27=CYLINDRICAL_SURFACE('',#147,3.);
#28=FACE_OUTER_BOUND('',#36,.T.);
#29=FACE_OUTER_BOUND('',#37,.T.);
#30=FACE_OUTER_BOUND('',#38,.T.);
#31=FACE_OUTER_BOUND('',#39,.T.);
#32=FACE_OUTER_BOUND('',#40,.T.);
#33=FACE_OUTER_BOUND('',#41,.T.);
#34=FACE_OUTER_BOUND('',#42,.T.);
#35=FACE_OUTER_BOUND('',#43,.T.);
#36=EDGE_LOOP('',(#80,#81,#82,#83,#84,#85));
#37=EDGE_LOOP('',(#86,#87,#88,#89,#90));
#38=EDGE_LOOP('',(#91,#92));
#39=EDGE_LOOP('',(#93));
#40=EDGE_LOOP('',(#94,#95,#96,#97,#98,#99));
#41=EDGE_LOOP('',(#100,#101,#102,#103,#104));
#42=EDGE_LOOP('',(#105,#106));
#43=EDGE_LOOP('',(#107));
#44=CIRCLE('',#132,0.15);
#45=CIRCLE('',#133,0.25);
#46=CIRCLE('',#134,0.4);
#47=CIRCLE('',#135,0.4);
#48=CIRCLE('',#136,0.15);
#49=CIRCLE('',#138,0.4);
#50=CIRCLE('',#142,2.5);
#51=CIRCLE('',#143,0.5);
#52=CIRCLE('',#144,3.);
#53=CIRCLE('',#145,3.);
#54=CIRCLE('',#146,2.5);
#55=CIRCLE('',#148,3.);
#56=VERTEX_POINT('',#221);
#57=VERTEX_POINT('',#222);
#58=VERTEX_POINT('',#224);
#59=VERTEX_POINT('',#226);
#60=VERTEX_POINT('',#231);
#61=VERTEX_POINT('',#237);
#62=VERTEX_POINT('',#238);
#63=VERTEX_POINT('',#240);
#64=VERTEX_POINT('',#242);
#65=VERTEX_POINT('',#247);
#66=EDGE_CURVE('',#56,#57,#44,.T.);
#67=EDGE_CURVE('',#57,#58,#45,.T.);
#68=EDGE_CURVE('',#58,#59,#46,.T.);
#69=EDGE_CURVE('',#59,#58,#47,.T.);
#70=EDGE_CURVE('',#57,#56,#48,.T.);
#71=EDGE_CURVE('',#59,#60,#22,.T.);
#72=EDGE_CURVE('',#60,#60,#49,.T.);
#73=EDGE_CURVE('',#61,#62,#50,.T.);
#74=EDGE_CURVE('',#62,#63,#51,.T.);
#75=EDGE_CURVE('',#63,#64,#52,.T.);
#76=EDGE_CURVE('',#64,#63,#53,.T.);
#77=EDGE_CURVE('',#62,#61,#54,.T.);
#78=EDGE_CURVE('',#64,#65,#23,.T.);
#79=EDGE_CURVE('',#65,#65,#55,.T.);
#80=ORIENTED_EDGE('',*,*,#66,.T.);
#81=ORIENTED_EDGE('',*,*,#67,.T.);
#82=ORIENTED_EDGE('',*,*,#68,.T.);
#83=ORIENTED_EDGE('',*,*,#69,.T.);
#84=ORIENTED_EDGE('',*,*,#67,.F.);
#85=ORIENTED_EDGE('',*,*,#70,.T.);
#86=ORIENTED_EDGE('',*,*,#69,.F.);
#87=ORIENTED_EDGE('',*,*,#71,.T.);
#88=ORIENTED_EDGE('',*,*,#72,.F.);
#89=ORIENTED_EDGE('',*,*,#71,.F.);
#90=ORIENTED_EDGE('',*,*,#68,.F.);
#91=ORIENTED_EDGE('',*,*,#66,.F.);
#92=ORIENTED_EDGE('',*,*,#70,.F.);
#93=ORIENTED_EDGE('',*,*,#72,.T.);
#94=ORIENTED_EDGE('',*,*,#73,.T.);
#95=ORIENTED_EDGE('',*,*,#74,.T.);
#96=ORIENTED_EDGE('',*,*,#75,.T.);
#97=ORIENTED_EDGE('',*,*,#76,.T.);
#98=ORIENTED_EDGE('',*,*,#74,.F.);
#99=ORIENTED_EDGE('',*,*,#77,.T.);
#100=ORIENTED_EDGE('',*,*,#76,.F.);
#101=ORIENTED_EDGE('',*,*,#78,.T.);
#102=ORIENTED_EDGE('',*,*,#79,.T.);
#103=ORIENTED_EDGE('',*,*,#78,.F.);
#104=ORIENTED_EDGE('',*,*,#75,.F.);
#105=ORIENTED_EDGE('',*,*,#73,.F.);
#106=ORIENTED_EDGE('',*,*,#77,.F.);
#107=ORIENTED_EDGE('',*,*,#79,.F.);
#108=(
BOUNDED_SURFACE()
B_SPLINE_SURFACE(2,2,((#194,#195,#196,#197,#198,#199,#200,#201,#202),(#203,
#204,#205,#206,#207,#208,#209,#210,#211),(#212,#213,#214,#215,#216,#217,
#218,#219,#220)),.UNSPECIFIED.,.F.,.T.,.F.)
B_SPLINE_SURFACE_WITH_KNOTS((3,3),(3,2,2,2,3),(0.,1.5707963267949),(-3.14159265358979,
-1.5707963267949,0.,1.5707963267949,3.14159265358979),.UNSPECIFIED.)
GEOMETRIC_REPRESENTATION_ITEM()
RATIONAL_B_SPLINE_SURFACE(((1.,0.707106781186548,1.,0.707106781186548,1.,
0.707106781186548,1.,0.707106781186548,1.),(0.707106781186551,0.500000000000003,
0.707106781186551,0.500000000000003,0.707106781186551,0.500000000000003,
0.707106781186551,0.500000000000003,0.707106781186551),(1.,0.707106781186548,
1.,0.707106781186548,1.,0.707106781186548,1.,0.707106781186548,1.)))
REPRESENTATION_ITEM('')
SURFACE()
);
#109=ADVANCED_FACE('',(#28),#108,.F.);
#110=ADVANCED_FACE('',(#29),#26,.T.);
#111=ADVANCED_FACE('',(#30),#18,.F.);
#112=ADVANCED_FACE('',(#31),#19,.T.);
#113=ADVANCED_FACE('',(#32),#13,.T.);
#114=ADVANCED_FACE('',(#33),#27,.T.);
#115=ADVANCED_FACE('',(#34),#20,.T.);
#116=ADVANCED_FACE('',(#35),#21,.F.);
#117=CLOSED_SHELL('',(#109,#110,#111,#112));
#118=CLOSED_SHELL('',(#113,#114,#115,#116));
#119=DERIVED_UNIT_ELEMENT(#121,1.);
#120=DERIVED_UNIT_ELEMENT(#257,3.);
#121=(
MASS_UNIT()
NAMED_UNIT(*)
SI_UNIT(.KILO.,.GRAM.)
);
#122=DERIVED_UNIT((#119,#120));
#123=MEASURE_REPRESENTATION_ITEM('density measure',
POSITIVE_RATIO_MEASURE(1060.),#122);
#124=PROPERTY_DEFINITION_REPRESENTATION(#129,#126);
#125=PROPERTY_DEFINITION_REPRESENTATION(#130,#127);
#126=REPRESENTATION('material name',(#128),#254);
#127=REPRESENTATION('density',(#123),#254);
#128=DESCRIPTIVE_REPRESENTATION_ITEM('ABS Plastic','ABS Plastic');
#129=PROPERTY_DEFINITION('material property','material name',#264);
#130=PROPERTY_DEFINITION('material property','density of part',#264);
#131=AXIS2_PLACEMENT_3D('placement',#193,#151,#152);
#132=AXIS2_PLACEMENT_3D('',#223,#153,#154);
#133=AXIS2_PLACEMENT_3D('',#225,#155,#156);
#134=AXIS2_PLACEMENT_3D('',#227,#157,#158);
#135=AXIS2_PLACEMENT_3D('',#228,#159,#160);
#136=AXIS2_PLACEMENT_3D('',#229,#161,#162);
#137=AXIS2_PLACEMENT_3D('',#230,#163,#164);
#138=AXIS2_PLACEMENT_3D('',#233,#166,#167);
#139=AXIS2_PLACEMENT_3D('',#234,#168,#169);
#140=AXIS2_PLACEMENT_3D('',#235,#170,#171);
#141=AXIS2_PLACEMENT_3D('',#236,#172,#173);
#142=AXIS2_PLACEMENT_3D('',#239,#174,#175);
#143=AXIS2_PLACEMENT_3D('',#241,#176,#177);
#144=AXIS2_PLACEMENT_3D('',#243,#178,#179);
#145=AXIS2_PLACEMENT_3D('',#244,#180,#181);
#146=AXIS2_PLACEMENT_3D('',#245,#182,#183);
#147=AXIS2_PLACEMENT_3D('',#246,#184,#185);
#148=AXIS2_PLACEMENT_3D('',#249,#187,#188);
#149=AXIS2_PLACEMENT_3D('',#250,#189,#190);
#150=AXIS2_PLACEMENT_3D('',#251,#191,#192);
#151=DIRECTION('axis',(0.,0.,1.));
#152=DIRECTION('refdir',(1.,0.,0.));
#153=DIRECTION('center_axis',(0.,-1.,0.));
#154=DIRECTION('ref_axis',(1.,0.,0.));
#155=DIRECTION('center_axis',(-1.,0.,1.22464679914735E-16));
#156=DIRECTION('ref_axis',(-1.22464679914735E-16,0.,-1.));
#157=DIRECTION('center_axis',(0.,1.,0.));
#158=DIRECTION('ref_axis',(1.,0.,0.));
#159=DIRECTION('center_axis',(0.,1.,0.));
#160=DIRECTION('ref_axis',(1.,0.,0.));
#161=DIRECTION('center_axis',(0.,-1.,0.));
#162=DIRECTION('ref_axis',(1.,0.,0.));
#163=DIRECTION('center_axis',(0.,1.,0.));
#164=DIRECTION('ref_axis',(1.,0.,0.));
#165=DIRECTION('',(0.,-1.,0.));
#166=DIRECTION('center_axis',(0.,-1.,0.));
#167=DIRECTION('ref_axis',(1.,0.,0.));
#168=DIRECTION('center_axis',(0.,-1.,0.));
#169=DIRECTION('ref_axis',(1.,0.,0.));
#170=DIRECTION('center_axis',(0.,-1.,0.));
#171=DIRECTION('ref_axis',(1.,0.,0.));
#172=DIRECTION('center_axis',(0.,1.,0.));
#173=DIRECTION('ref_axis',(0.,0.,1.));
#174=DIRECTION('center_axis',(0.,-1.,0.));
#175=DIRECTION('ref_axis',(1.,0.,0.));
#176=DIRECTION('center_axis',(-1.,0.,1.22464679914735E-16));
#177=DIRECTION('ref_axis',(-1.22464679914735E-16,0.,-1.));
#178=DIRECTION('center_axis',(0.,1.,0.));
#179=DIRECTION('ref_axis',(1.,0.,0.));
#180=DIRECTION('center_axis',(0.,1.,0.));
#181=DIRECTION('ref_axis',(1.,0.,0.));
#182=DIRECTION('center_axis',(0.,-1.,0.));
#183=DIRECTION('ref_axis',(1.,0.,0.));
#184=DIRECTION('center_axis',(0.,1.,0.));
#185=DIRECTION('ref_axis',(1.,0.,0.));
#186=DIRECTION('',(0.,-1.,0.));
#187=DIRECTION('center_axis',(0.,1.,0.));
#188=DIRECTION('ref_axis',(1.,0.,0.));
#189=DIRECTION('center_axis',(0.,1.,0.));
#190=DIRECTION('ref_axis',(1.,0.,0.));
#191=DIRECTION('center_axis',(0.,1.,0.));
#192=DIRECTION('ref_axis',(1.,0.,0.));
#193=CARTESIAN_POINT('',(0.,0.,0.));
#194=CARTESIAN_POINT('Ctrl Pts',(0.,19.75,-0.4));
#195=CARTESIAN_POINT('Ctrl Pts',(-0.4,19.75,-0.4));
#196=CARTESIAN_POINT('Ctrl Pts',(-0.4,19.75,0.));
#197=CARTESIAN_POINT('Ctrl Pts',(-0.4,19.75,0.4));
#198=CARTESIAN_POINT('Ctrl Pts',(0.,19.75,0.4));
#199=CARTESIAN_POINT('Ctrl Pts',(0.4,19.75,0.4));
#200=CARTESIAN_POINT('Ctrl Pts',(0.4,19.75,0.));
#201=CARTESIAN_POINT('Ctrl Pts',(0.4,19.75,-0.4));
#202=CARTESIAN_POINT('Ctrl Pts',(0.,19.75,-0.4));
#203=CARTESIAN_POINT('Ctrl Pts',(0.,20.,-0.4));
#204=CARTESIAN_POINT('Ctrl Pts',(-0.4,20.,-0.4));
#205=CARTESIAN_POINT('Ctrl Pts',(-0.4,20.,0.));
#206=CARTESIAN_POINT('Ctrl Pts',(-0.4,20.,0.4));
#207=CARTESIAN_POINT('Ctrl Pts',(0.,20.,0.4));
#208=CARTESIAN_POINT('Ctrl Pts',(0.4,20.,0.4));
#209=CARTESIAN_POINT('Ctrl Pts',(0.4,20.,0.));
#210=CARTESIAN_POINT('Ctrl Pts',(0.4,20.,-0.4));
#211=CARTESIAN_POINT('Ctrl Pts',(0.,20.,-0.4));
#212=CARTESIAN_POINT('Ctrl Pts',(0.,20.,-0.15));
#213=CARTESIAN_POINT('Ctrl Pts',(-0.15,20.,-0.15));
#214=CARTESIAN_POINT('Ctrl Pts',(-0.15,20.,0.));
#215=CARTESIAN_POINT('Ctrl Pts',(-0.15,20.,0.15));
#216=CARTESIAN_POINT('Ctrl Pts',(0.,20.,0.15));
#217=CARTESIAN_POINT('Ctrl Pts',(0.15,20.,0.15));
#218=CARTESIAN_POINT('Ctrl Pts',(0.15,20.,0.));
#219=CARTESIAN_POINT('Ctrl Pts',(0.15,20.,-0.15));
#220=CARTESIAN_POINT('Ctrl Pts',(0.,20.,-0.15));
#221=CARTESIAN_POINT('',(-0.15,20.,-1.83697019872103E-17));
#222=CARTESIAN_POINT('',(-1.83697019872103E-17,20.,-0.15));
#223=CARTESIAN_POINT('Origin',(0.,20.,0.));
#224=CARTESIAN_POINT('',(-4.89858719658941E-17,19.75,-0.4));
#225=CARTESIAN_POINT('Origin',(-1.83697019872103E-17,19.75,-0.15));
#226=CARTESIAN_POINT('',(-0.4,19.75,4.89858719658941E-17));
#227=CARTESIAN_POINT('Origin',(0.,19.75,0.));
#228=CARTESIAN_POINT('Origin',(0.,19.75,0.));
#229=CARTESIAN_POINT('Origin',(0.,20.,0.));
#230=CARTESIAN_POINT('Origin',(0.,0.,0.));
#231=CARTESIAN_POINT('',(-0.4,0.,-4.89858719658941E-17));
#232=CARTESIAN_POINT('',(-0.4,0.,4.89858719658941E-17));
#233=CARTESIAN_POINT('Origin',(0.,0.,0.));
#234=CARTESIAN_POINT('Origin',(0.,20.,0.));
#235=CARTESIAN_POINT('Origin',(0.,0.,0.));
#236=CARTESIAN_POINT('Origin',(0.,14.5,0.));
#237=CARTESIAN_POINT('',(-2.5,15.,-3.06161699786838E-16));
#238=CARTESIAN_POINT('',(-3.06161699786838E-16,15.,-2.5));
#239=CARTESIAN_POINT('Origin',(0.,15.,0.));
#240=CARTESIAN_POINT('',(-3.67394039744206E-16,14.5,-3.));
#241=CARTESIAN_POINT('Origin',(-3.06161699786838E-16,14.5,-2.5));
#242=CARTESIAN_POINT('',(-3.,14.5,3.67394039744206E-16));
#243=CARTESIAN_POINT('Origin',(0.,14.5,0.));
#244=CARTESIAN_POINT('Origin',(0.,14.5,0.));
#245=CARTESIAN_POINT('Origin',(0.,15.,0.));
#246=CARTESIAN_POINT('Origin',(0.,0.,0.));
#247=CARTESIAN_POINT('',(-3.,0.,3.67394039744206E-16));
#248=CARTESIAN_POINT('',(-3.,0.,3.67394039744206E-16));
#249=CARTESIAN_POINT('Origin',(0.,0.,0.));
#250=CARTESIAN_POINT('Origin',(0.,15.,0.));
#251=CARTESIAN_POINT('Origin',(0.,0.,0.));
#252=UNCERTAINTY_MEASURE_WITH_UNIT(LENGTH_MEASURE(0.01),#256,
'DISTANCE_ACCURACY_VALUE',
'Maximum model space distance between geometric entities at asserted c
onnectivities');
#253=UNCERTAINTY_MEASURE_WITH_UNIT(LENGTH_MEASURE(0.01),#256,
'DISTANCE_ACCURACY_VALUE',
'Maximum model space distance between geometric entities at asserted c
onnectivities');
#254=(
GEOMETRIC_REPRESENTATION_CONTEXT(3)
GLOBAL_UNCERTAINTY_ASSIGNED_CONTEXT((#252))
GLOBAL_UNIT_ASSIGNED_CONTEXT((#256,#258,#259))
REPRESENTATION_CONTEXT('','3D')
);
#255=(
GEOMETRIC_REPRESENTATION_CONTEXT(3)
GLOBAL_UNCERTAINTY_ASSIGNED_CONTEXT((#253))
GLOBAL_UNIT_ASSIGNED_CONTEXT((#256,#258,#259))
REPRESENTATION_CONTEXT('','3D')
);
#256=(
LENGTH_UNIT()
NAMED_UNIT(*)
SI_UNIT(.MILLI.,.METRE.)
);
#257=(
LENGTH_UNIT()
NAMED_UNIT(*)
SI_UNIT($,.METRE.)
);
#258=(
NAMED_UNIT(*)
PLANE_ANGLE_UNIT()
SI_UNIT($,.RADIAN.)
);
#259=(
NAMED_UNIT(*)
SI_UNIT($,.STERADIAN.)
SOLID_ANGLE_UNIT()
);
#260=SHAPE_DEFINITION_REPRESENTATION(#261,#262);
#261=PRODUCT_DEFINITION_SHAPE('',$,#264);
#262=SHAPE_REPRESENTATION('',(#131),#254);
#263=PRODUCT_DEFINITION_CONTEXT('part definition',#268,'design');
#264=PRODUCT_DEFINITION('615 motor','615 motor',#265,#263);
#265=PRODUCT_DEFINITION_FORMATION('',$,#270);
#266=PRODUCT_RELATED_PRODUCT_CATEGORY('615 motor','615 motor',(#270));
#267=APPLICATION_PROTOCOL_DEFINITION('international standard',
'automotive_design',2009,#268);
#268=APPLICATION_CONTEXT(
'Core Data for Automotive Mechanical Design Process');
#269=PRODUCT_CONTEXT('part definition',#268,'mechanical');
#270=PRODUCT('615 motor','615 motor',$,(#269));
#271=PRESENTATION_STYLE_ASSIGNMENT((#274));
#272=PRESENTATION_STYLE_ASSIGNMENT((#275));
#273=PRESENTATION_STYLE_ASSIGNMENT((#276));
#274=SURFACE_STYLE_USAGE(.BOTH.,#277);
#275=SURFACE_STYLE_USAGE(.BOTH.,#278);
#276=SURFACE_STYLE_USAGE(.BOTH.,#279);
#277=SURFACE_SIDE_STYLE('',(#280));
#278=SURFACE_SIDE_STYLE('',(#281));
#279=SURFACE_SIDE_STYLE('',(#282));
#280=SURFACE_STYLE_FILL_AREA(#283);
#281=SURFACE_STYLE_FILL_AREA(#284);
#282=SURFACE_STYLE_FILL_AREA(#285);
#283=FILL_AREA_STYLE('ABS (White)',(#286));
#284=FILL_AREA_STYLE('ABS (White)',(#287));
#285=FILL_AREA_STYLE('Chrome',(#288));
#286=FILL_AREA_STYLE_COLOUR('ABS (White)',#289);
#287=FILL_AREA_STYLE_COLOUR('ABS (White)',#290);
#288=FILL_AREA_STYLE_COLOUR('Chrome',#291);
#289=COLOUR_RGB('ABS (White)',0.964705882352941,0.964705882352941,0.952941176470588);
#290=COLOUR_RGB('ABS (White)',1.,1.,1.);
#291=COLOUR_RGB('Chrome',0.768627450980392,0.772549019607843,0.768627450980392);
ENDSEC;
END-ISO-10303-21;
